<?xml version="1.0" encoding="UTF-8" standalone="no"?><svg xmlns="http://www.w3.org/2000/svg" xmlns:xlink="http://www.w3.org/1999/xlink" contentScriptType="application/ecmascript" contentStyleType="text/css" height="290px" preserveAspectRatio="none" style="width:279px;height:290px;" version="1.1" viewBox="0 0 279 290" width="279px" zoomAndPan="magnify"><defs><filter height="300%" id="f1m73fzjm28wy" width="300%" x="-1" y="-1"><feGaussianBlur result="blurOut" stdDeviation="2.0"/><feColorMatrix in="blurOut" result="blurOut2" type="matrix" values="0 0 0 0 0 0 0 0 0 0 0 0 0 0 0 0 0 0 .4 0"/><feOffset dx="4.0" dy="4.0" in="blurOut2" result="blurOut3"/><feBlend in="SourceGraphic" in2="blurOut3" mode="normal"/></filter></defs><g><!--class Book--><rect fill="#FEFECE" filter="url(#f1m73fzjm28wy)" height="137.6328" id="Book" style="stroke: #A80036; stroke-width: 1.5;" width="188" x="43" y="8"/><ellipse cx="117.25" cy="24" fill="#ADD1B2" rx="11" ry="11" style="stroke: #A80036; stroke-width: 1.0;"/><path d="M119.5938,19.6719 L119.7656,19.75 C119.9844,19.4375 120.1875,19.3438 120.4844,19.3438 C120.7813,19.3438 121.0625,19.4844 121.2188,19.75 C121.3125,19.9063 121.3281,20.0313 121.3281,20.4688 L121.3281,21.8906 C121.3281,22.3125 121.2969,22.5 121.1875,22.6563 C121.0156,22.875 120.75,23.0156 120.4844,23.0156 C120.2656,23.0156 120.0313,22.9063 119.8906,22.7656 C119.75,22.6406 119.7188,22.5156 119.6563,22.1094 C119.5625,21.7031 119.3906,21.4844 118.9063,21.2031 C118.4375,20.9531 117.8281,20.7969 117.25,20.7969 C115.5156,20.7969 114.2656,22.1094 114.2656,23.8906 L114.2656,24.9844 C114.2656,26.6875 115.5625,27.7813 117.6094,27.7813 C118.375,27.7813 119.0625,27.6563 119.4844,27.3906 C119.6719,27.2969 119.6719,27.2969 120.125,26.8125 C120.3125,26.625 120.5156,26.5469 120.7344,26.5469 C121.2031,26.5469 121.5938,26.9375 121.5938,27.3906 C121.5938,27.7813 121.2656,28.2344 120.6875,28.6406 C119.9375,29.1875 118.7813,29.4844 117.5625,29.4844 C114.6719,29.4844 112.5625,27.5938 112.5625,25.0156 L112.5625,23.8906 C112.5625,21.1719 114.5625,19.0938 117.1875,19.0938 C118.0625,19.0938 118.6563,19.2344 119.5938,19.6719 Z "/><text fill="#000000" font-family="sans-serif" font-size="12" lengthAdjust="spacingAndGlyphs" textLength="31" x="137.75" y="28.1543">Book</text><line style="stroke: #A80036; stroke-width: 1.5;" x1="44" x2="230" y1="40" y2="40"/><rect fill="none" height="6" style="stroke: #C82930; stroke-width: 1.0;" width="6" x="51" y="48.9023"/><text fill="#000000" font-family="sans-serif" font-size="11" lengthAdjust="spacingAndGlyphs" textLength="63" x="63" y="54.2104">title: String</text><rect fill="none" height="6" style="stroke: #C82930; stroke-width: 1.0;" width="6" x="51" y="61.707"/><text fill="#000000" font-family="sans-serif" font-size="11" lengthAdjust="spacingAndGlyphs" textLength="79" x="63" y="67.0151">author: String</text><rect fill="none" height="6" style="stroke: #C82930; stroke-width: 1.0;" width="6" x="51" y="74.5117"/><text fill="#000000" font-family="sans-serif" font-size="11" lengthAdjust="spacingAndGlyphs" textLength="74" x="63" y="79.8198">price: double</text><line style="stroke: #A80036; stroke-width: 1.5;" x1="44" x2="230" y1="86.4141" y2="86.4141"/><ellipse cx="54" cy="98.3164" fill="#84BE84" rx="3" ry="3" style="stroke: #038048; stroke-width: 1.0;"/><text fill="#000000" font-family="sans-serif" font-size="11" lengthAdjust="spacingAndGlyphs" textLength="162" x="63" y="100.6245">Book (String, String, double)</text><rect fill="#F24D5C" height="6" style="stroke: #C82930; stroke-width: 1.0;" width="6" x="51" y="108.1211"/><text fill="#000000" font-family="sans-serif" font-size="11" lengthAdjust="spacingAndGlyphs" textLength="119" x="63" y="113.4292">setTitle(String) : void</text><rect fill="#F24D5C" height="6" style="stroke: #C82930; stroke-width: 1.0;" width="6" x="51" y="120.9258"/><text fill="#000000" font-family="sans-serif" font-size="11" lengthAdjust="spacingAndGlyphs" textLength="132" x="63" y="126.2339">setAuthor(String) : void</text><rect fill="#F24D5C" height="6" style="stroke: #C82930; stroke-width: 1.0;" width="6" x="51" y="133.7305"/><text fill="#000000" font-family="sans-serif" font-size="11" lengthAdjust="spacingAndGlyphs" textLength="127" x="63" y="139.0386">setPrice(double) : void</text><!--class GoldenEditionBook--><rect fill="#FEFECE" filter="url(#f1m73fzjm28wy)" height="73.6094" id="GoldenEditionBook" style="stroke: #A80036; stroke-width: 1.5;" width="262" x="6" y="206"/><ellipse cx="73.75" cy="222" fill="#ADD1B2" rx="11" ry="11" style="stroke: #A80036; stroke-width: 1.0;"/><path d="M76.0938,217.6719 L76.2656,217.75 C76.4844,217.4375 76.6875,217.3438 76.9844,217.3438 C77.2813,217.3438 77.5625,217.4844 77.7188,217.75 C77.8125,217.9063 77.8281,218.0313 77.8281,218.4688 L77.8281,219.8906 C77.8281,220.3125 77.7969,220.5 77.6875,220.6563 C77.5156,220.875 77.25,221.0156 76.9844,221.0156 C76.7656,221.0156 76.5313,220.9063 76.3906,220.7656 C76.25,220.6406 76.2188,220.5156 76.1563,220.1094 C76.0625,219.7031 75.8906,219.4844 75.4063,219.2031 C74.9375,218.9531 74.3281,218.7969 73.75,218.7969 C72.0156,218.7969 70.7656,220.1094 70.7656,221.8906 L70.7656,222.9844 C70.7656,224.6875 72.0625,225.7813 74.1094,225.7813 C74.875,225.7813 75.5625,225.6563 75.9844,225.3906 C76.1719,225.2969 76.1719,225.2969 76.625,224.8125 C76.8125,224.625 77.0156,224.5469 77.2344,224.5469 C77.7031,224.5469 78.0938,224.9375 78.0938,225.3906 C78.0938,225.7813 77.7656,226.2344 77.1875,226.6406 C76.4375,227.1875 75.2813,227.4844 74.0625,227.4844 C71.1719,227.4844 69.0625,225.5938 69.0625,223.0156 L69.0625,221.8906 C69.0625,219.1719 71.0625,217.0938 73.6875,217.0938 C74.5625,217.0938 75.1563,217.2344 76.0938,217.6719 Z "/><text fill="#000000" font-family="sans-serif" font-size="12" lengthAdjust="spacingAndGlyphs" textLength="118" x="94.25" y="226.1543">GoldenEditionBook</text><line style="stroke: #A80036; stroke-width: 1.5;" x1="7" x2="267" y1="238" y2="238"/><line style="stroke: #A80036; stroke-width: 1.5;" x1="7" x2="267" y1="246" y2="246"/><ellipse cx="17" cy="257.9023" fill="#84BE84" rx="3" ry="3" style="stroke: #038048; stroke-width: 1.0;"/><text fill="#000000" font-family="sans-serif" font-size="11" lengthAdjust="spacingAndGlyphs" textLength="236" x="26" y="260.2104">GoldenEditionBook(String, String, double)</text><ellipse cx="17" cy="270.707" fill="#84BE84" rx="3" ry="3" style="stroke: #038048; stroke-width: 1.0;"/><text fill="#000000" font-family="sans-serif" font-size="11" lengthAdjust="spacingAndGlyphs" textLength="104" x="26" y="273.0151">getPrice() : double</text><!--link Book to GoldenEditionBook--><path d="M137,166.42 C137,180.2783 137,193.8905 137,205.6603 " fill="none" id="Book-GoldenEditionBook" style="stroke: #A80036; stroke-width: 1.0;"/><polygon fill="none" points="130,166.126,137,146.126,144,166.126,130,166.126" style="stroke: #A80036; stroke-width: 1.0;"/><!--
@startuml
Book <|- - GoldenEditionBook 
class Book {
   - title: String
   - author: String 
   - price: double
  
   + Book (String, String, double)
   - setTitle(String) : void
   - setAuthor(String) : void
   - setPrice(double) : void
   + toString() : String
}

class GoldenEditionBook {
   + GoldenEditionBook(String, String, double)
   + getPrice() : double
}
@enduml

PlantUML version 1.2019.03(Sun Mar 10 11:04:44 UTC 2019)
(GPL source distribution)
Java Runtime: Java(TM) SE Runtime Environment
JVM: Java HotSpot(TM) 64-Bit Server VM
Java Version: 1.7.0_25-b15
Operating System: Linux
Default Encoding: UTF-8
Language: en
Country: US
--></g></svg>